#N canvas 197 214 596 412 10;
#X obj 96 193 metro 250;
#X obj 240 308 mod 8;
#X obj 96 308 mod 2;
#X obj 168 308 mod 4;
#X obj 57 89 bng 12 250 50 0 \$0-cd2o \$0-cd2i empty 17 7 0 10 -262144
-1 -1;
#X obj 24 89 bng 12 100 50 0 \$0-cd1o \$0-cd1i empty 17 7 0 10 -262144
-1 -1;
#X obj 96 331 sel 0;
#X obj 92 89 bng 12 250 50 0 \$0-cd4o \$0-cd4i empty 17 7 0 10 -262144
-1 -1;
#X obj 168 331 sel 0;
#X obj 125 89 bng 12 250 50 0 \$0-cd8o \$0-cd8i empty 17 7 0 10 -262144
-1 -1;
#X obj 240 331 sel 0;
#X obj 158 89 bng 12 250 50 0 \$0-cd16o \$0-cd16i empty 17 7 0 10 -262144
-1 -1;
#X obj 312 331 sel 0;
#X obj 191 89 bng 12 250 50 0 \$0-cd32o \$0-cd32i empty 17 7 0 10 -262144
-1 -1;
#X obj 391 331 sel 0;
#X obj 224 88 bng 12 250 50 0 \$0-cd64o \$0-cd64i empty 17 7 0 10 -262144
-1 -1;
#X obj 470 331 sel 0;
#X obj 312 308 mod 16;
#X obj 391 308 mod 32;
#X obj 470 308 mod 64;
#X obj 96 261 t f f f f f f;
#X floatatom 163 47 5 0 0 0 - #0-tmpi #0-tmpo, f 5;
#X text 22 72 /1;
#X text 54 72 /2;
#X text 89 72 /4;
#X text 121 72 /8;
#X text 152 72 /16;
#X text 184 73 /32;
#X text 215 72 /64;
#X obj 24 114 outlet;
#X obj 57 114 outlet;
#X obj 92 114 outlet;
#X obj 125 114 outlet;
#X obj 158 114 outlet;
#X obj 191 114 outlet;
#X obj 224 114 outlet;
#X text 124 46 tempo;
#X obj 75 48 tgl 15 0 \$0-togo \$0-togi empty 17 7 0 10 -262144 -1
-1 0 1;
#X text 29 47 on/off;
#X obj 307 42 inlet;
#X obj 379 42 inlet;
#X obj 96 216 counter;
#X obj 379 64 s \$0-tmpi;
#X obj 307 64 s \$0-togi;
#X obj 156 171 r \$0-tmpo;
#X obj 96 150 r \$0-togo;
#X obj 470 353 s \$0-cd64i;
#X obj 391 353 s \$0-cd32i;
#X obj 312 353 s \$0-cd16i;
#X obj 240 353 s \$0-cd8i;
#X obj 168 353 s \$0-cd4i;
#X obj 96 353 s \$0-cd2i;
#X obj 24 353 s \$0-cd1i;
#X connect 0 0 41 0;
#X connect 0 0 52 0;
#X connect 1 0 10 0;
#X connect 2 0 6 0;
#X connect 3 0 8 0;
#X connect 4 0 30 0;
#X connect 5 0 29 0;
#X connect 6 0 51 0;
#X connect 7 0 31 0;
#X connect 8 0 50 0;
#X connect 9 0 32 0;
#X connect 10 0 49 0;
#X connect 11 0 33 0;
#X connect 12 0 48 0;
#X connect 13 0 34 0;
#X connect 14 0 47 0;
#X connect 15 0 35 0;
#X connect 16 0 46 0;
#X connect 17 0 12 0;
#X connect 18 0 14 0;
#X connect 19 0 16 0;
#X connect 20 0 2 0;
#X connect 20 1 3 0;
#X connect 20 2 1 0;
#X connect 20 3 17 0;
#X connect 20 4 18 0;
#X connect 20 5 19 0;
#X connect 39 0 43 0;
#X connect 40 0 42 0;
#X connect 41 0 20 0;
#X connect 44 0 0 1;
#X connect 45 0 0 0;
#X coords 0 0 1 1 220 85 1 20 20;
