#N canvas 278 476 450 300 10;
#X obj 327 191 metro;
#X obj 174 191 metro;
#X obj 250 191 metro;
#X obj 212 96 inlet;
#X obj 174 217 outlet;
#X obj 327 217 outlet;
#X obj 250 217 outlet;
#X obj 131 133 inlet;
#X obj 327 166 r go;
#X obj 174 166 r go;
#X obj 250 166 r go;
#X obj 212 118 s tempo;
#X obj 212 141 r tempo;
#X obj 365 142 r tempo;
#X obj 288 142 r tempo;
#X text 21 63 8x;
#X text 52 63 4x;
#X text 87 63 2x;
#X obj 24 42 tgl 15 0 go goi GO 17 7 0 10 -228856 -4034 -1 1 1;
#X obj 131 166 s goi;
#X obj 365 166 / 2;
#X obj 288 166 / 4;
#X obj 212 166 / 8;
#X connect 0 0 5 0;
#X connect 1 0 4 0;
#X connect 2 0 6 0;
#X connect 3 0 11 0;
#X connect 7 0 19 0;
#X connect 8 0 0 0;
#X connect 9 0 1 0;
#X connect 10 0 2 0;
#X connect 12 0 22 0;
#X connect 13 0 20 0;
#X connect 14 0 21 0;
#X connect 20 0 0 1;
#X connect 21 0 2 1;
#X connect 22 0 1 1;
#X coords 0 -1 1 1 85 60 1 20 20;
