#N canvas 1005 658 450 300 10;
#X obj 233 126 + 1;
#X obj 157 41 inlet;
#X obj 204 41 inlet;
#X obj 251 41 inlet;
#X obj 186 172 outlet;
#X text 211 23 init;
#X text 143 23 trigger;
#X text 298 22 reset;
#X obj 298 41 inlet;
#X text 258 22 step;
#X obj 186 127 f 0;
#X obj 26 39 nbx 7 14 -1e+37 1e+37 0 0 \$0-b \$0-count empty 0 -8 0
10 -33289 -228856 -1 0 256;
#X obj 104 38 bng 15 250 50 0 \$0-rst \$0-a empty 17 7 0 10 -258113
-261234 -1;
#X msg 298 87 0;
#X obj 194 150 s \$0-count;
#X obj 309 64 r \$0-rst;
#X obj 298 111 s \$0-count;
#X connect 0 0 10 1;
#X connect 1 0 10 0;
#X connect 2 0 10 1;
#X connect 3 0 0 1;
#X connect 8 0 13 0;
#X connect 10 0 0 0;
#X connect 10 0 4 0;
#X connect 10 0 14 0;
#X connect 13 0 16 0;
#X connect 13 0 10 0;
#X connect 15 0 13 0;
#X coords 0 -1 1 1 105 38 1 20 20;
