#N canvas 4 59 450 300 10;
#X obj 209 170 + 1;
#X obj 133 85 inlet;
#X obj 180 85 inlet;
#X obj 227 85 inlet;
#X obj 162 216 outlet;
#X text 187 67 init;
#X text 119 67 trigger;
#X text 274 66 reset;
#X obj 274 85 inlet;
#X text 234 66 step;
#X obj 162 171 f 0;
#X msg 274 131 0;
#X connect 0 0 10 1;
#X connect 1 0 10 0;
#X connect 2 0 10 1;
#X connect 3 0 0 1;
#X connect 8 0 11 0;
#X connect 10 0 0 0;
#X connect 10 0 4 0;
#X connect 11 0 10 0;
