#N canvas 969 237 504 215 10;
#X obj 288 41 inlet~;
#X obj 149 42 inlet~;
#X obj 392 41 inlet;
#X obj 287 109 *~;
#X obj 148 108 *~;
#X obj 166 86 expr 1 - $f1;
#X obj 148 153 outlet~;
#X obj 287 155 outlet~;
#X text 153 20 left;
#X text 290 20 right;
#X text 397 19 mix;
#X obj 393 159 outlet~;
#X obj 393 135 +~;
#X obj 26 37 hsl 90 20 0 1 0 0 \$0-scale \$0-scalei empty -2 -8 0 10
-262144 -1 -1 3137 1;
#X obj 392 65 s \$0-scalei;
#X obj 166 64 r \$0-sl;
#X obj 305 63 r \$0-sr;
#X obj 157 131 s~ \$0-ml;
#X obj 297 133 s~ \$0-mr;
#X obj 392 90 r~ \$0-ml;
#X obj 411 112 r~ \$0-mr;
#X obj 24 71 r \$0-scale;
#X obj 31 93 s \$0-sr;
#X obj 24 115 s \$0-sl;
#X connect 0 0 3 0;
#X connect 1 0 4 0;
#X connect 2 0 14 0;
#X connect 3 0 7 0;
#X connect 3 0 18 0;
#X connect 4 0 6 0;
#X connect 4 0 17 0;
#X connect 5 0 4 1;
#X connect 12 0 11 0;
#X connect 15 0 5 0;
#X connect 16 0 3 1;
#X connect 19 0 12 0;
#X connect 20 0 12 1;
#X connect 21 0 22 0;
#X connect 21 0 23 0;
#X coords 0 -1 1 1 101 40 1 20 20;
