#N canvas 969 237 433 282 10;
#X obj 67 58 inlet~;
#X obj 127 58 inlet~;
#X obj 265 58 inlet;
#X obj 68 108 *~;
#X obj 127 132 *~;
#X obj 145 107 expr 1 - $f1;
#X obj 127 177 outlet~;
#X obj 67 177 outlet~;
#X text 72 37 left;
#X text 128 36 right;
#X text 270 36 mix;
#X obj 266 176 outlet~;
#X obj 266 152 +~;
#X obj 86 83 r sl;
#X obj 145 83 r sr;
#X obj 265 82 s sl;
#X obj 303 82 s sr;
#X obj 77 131 s~ ml;
#X obj 136 155 s~ mr;
#X obj 265 107 r~ ml;
#X obj 284 129 r~ mr;
#X connect 0 0 3 0;
#X connect 1 0 4 0;
#X connect 2 0 15 0;
#X connect 2 0 16 0;
#X connect 3 0 7 0;
#X connect 3 0 17 0;
#X connect 4 0 6 0;
#X connect 4 0 18 0;
#X connect 5 0 4 1;
#X connect 12 0 11 0;
#X connect 13 0 3 1;
#X connect 14 0 5 0;
#X connect 19 0 12 0;
#X connect 20 0 12 1;
