#N canvas 2021 129 450 300 10;
#X obj 198 106 phasor~;
#X obj 198 128 *~ 2;
#X obj 198 150 -~ 1;
#X obj 198 172 abs~;
#X obj 198 62 inlet;
#X obj 198 84 sig~;
#X obj 140 128 loadbang;
#X msg 140 150 1;
#X obj 140 172 metro 1;
#X obj 198 194 snapshot~;
#X obj 198 216 outlet;
#X connect 0 0 1 0;
#X connect 1 0 2 0;
#X connect 2 0 3 0;
#X connect 3 0 9 0;
#X connect 4 0 5 0;
#X connect 5 0 0 0;
#X connect 6 0 7 0;
#X connect 7 0 8 0;
#X connect 8 0 9 0;
#X connect 9 0 10 0;
