#N canvas 2046 532 450 300 10;
#X obj 192 107 phasor~;
#X obj 192 129 *~ 2;
#X obj 192 151 -~ 1;
#X obj 192 173 abs~;
#X obj 192 63 inlet;
#X obj 192 85 sig~;
#X obj 192 195 *~ 2;
#X obj 192 217 -~ 1;
#X obj 192 239 outlet~;
#X connect 0 0 1 0;
#X connect 1 0 2 0;
#X connect 2 0 3 0;
#X connect 3 0 6 0;
#X connect 4 0 5 0;
#X connect 5 0 0 0;
#X connect 6 0 7 0;
#X connect 7 0 8 0;
