#N canvas 881 204 421 358 10;
#X obj 196 105 * -1;
#X obj 128 215 +~;
#X obj 196 127 phasor~;
#X obj 196 149 *~ 2;
#X obj 196 171 -~ 1;
#X obj 128 193 clip~ 0 1;
#X obj 196 193 clip~ 0 1;
#X obj 128 237 *~ 2;
#X obj 128 259 -~ 1;
#X obj 40 81 r note;
#X obj 40 103 phasor~;
#X obj 40 125 *~ 2;
#X obj 40 147 -~ 1;
#X obj 135 22 loadbang;
#X obj 235 105 r sync;
#X obj 39 22 inlet;
#X obj 39 44 s note;
#X obj 196 83 r note;
#X obj 40 169 s~ bigsaw;
#X obj 206 260 r~ bigsaw;
#X obj 206 282 outlet~;
#X obj 284 239 r~ bigsaw;
#X obj 284 261 expr~ $v1 > 0;
#X obj 284 283 outlet~;
#X obj 128 171 r~ bigsaw;
#X obj 86 81 r sync;
#X obj 128 281 outlet~;
#X msg 135 44 0;
#X obj 135 66 s sync;
#X connect 0 0 2 0;
#X connect 1 0 7 0;
#X connect 2 0 3 0;
#X connect 3 0 4 0;
#X connect 4 0 6 0;
#X connect 5 0 1 0;
#X connect 6 0 1 1;
#X connect 7 0 8 0;
#X connect 8 0 26 0;
#X connect 9 0 10 0;
#X connect 10 0 11 0;
#X connect 11 0 12 0;
#X connect 12 0 18 0;
#X connect 13 0 27 0;
#X connect 14 0 2 1;
#X connect 15 0 16 0;
#X connect 17 0 0 0;
#X connect 19 0 20 0;
#X connect 21 0 22 0;
#X connect 22 0 23 0;
#X connect 24 0 5 0;
#X connect 25 0 10 1;
#X connect 27 0 28 0;
