#N canvas 555 65 345 442 10;
#X obj 85 216 hip~;
#X obj 86 332 *~;
#X obj 136 305 vline~;
#X obj 85 193 noise~;
#X obj 168 188 line;
#X obj 168 122 + 1;
#X obj 168 144 * 1000;
#X msg 168 166 \$1 \, 6000 100;
#X obj 168 100 random 5;
#X obj 136 217 random 5;
#X obj 136 239 * 10;
#X obj 136 261 + 50;
#X msg 136 283 0.3 10 \, 0 \$1 10;
#X obj 136 56 inlet;
#X obj 136 78 t b b;
#X obj 86 354 outlet~;
#X connect 0 0 1 0;
#X connect 1 0 15 0;
#X connect 2 0 1 1;
#X connect 3 0 0 0;
#X connect 4 0 0 1;
#X connect 5 0 6 0;
#X connect 6 0 7 0;
#X connect 7 0 4 0;
#X connect 8 0 5 0;
#X connect 9 0 10 0;
#X connect 10 0 11 0;
#X connect 11 0 12 0;
#X connect 12 0 2 0;
#X connect 13 0 14 0;
#X connect 14 0 9 0;
#X connect 14 1 8 0;
