#N canvas 1984 113 450 300 10;
#X obj 184 71 inlet;
#X obj 205 93 loadbang;
#X obj 184 137 smh/counter;
#X obj 184 203 outlet;
#X obj 205 115 expr \$1 - \$2;
#X obj 184 159 mod \$1;
#X obj 184 181 sel 0;
#X connect 0 0 2 0;
#X connect 1 0 4 0;
#X connect 2 0 5 0;
#X connect 4 0 2 1;
#X connect 5 0 6 0;
#X connect 6 0 3 0;
