#N canvas 2020 210 523 568 10;
#X msg 98 280 0;
#X msg 125 280 1;
#X msg 152 280 2;
#X msg 179 280 3;
#X msg 206 280 4;
#X msg 233 280 5;
#X msg 260 280 6;
#X msg 287 280 7;
#X msg 314 280 8;
#X msg 341 280 9;
#X msg 368 280 10;
#X msg 395 280 11;
#X obj 169 79 bng 30 250 50 0 \$0-n3 \$0-xxx empty 17 7 0 10 -262144
-1 -1;
#X obj 134 79 bng 30 250 50 0 \$0-n1 \$0-xxx empty 17 7 0 10 -262144
-1 -1;
#X obj 204 79 bng 30 250 50 0 \$0-n5 \$0-xxx empty 17 7 0 10 -262144
-1 -1;
#X obj 239 79 bng 30 250 50 0 \$0-n6 \$0-xxx empty 17 7 0 10 -262144
-1 -1;
#X obj 274 79 bng 30 250 50 0 \$0-n8 \$0-xxx empty 17 7 0 10 -262144
-1 -1;
#X obj 309 79 bng 30 250 50 0 \$0-n10 \$0-xxx empty 17 7 0 10 -262144
-1 -1;
#X obj 344 79 bng 30 250 50 0 \$0-n12 \$0-xxx empty 17 7 0 10 -262144
-1 -1;
#X obj 188 44 bng 30 250 50 0 \$0-n4 \$0-xxx empty 17 7 0 10 -1 -262144
-262144;
#X obj 152 44 bng 30 250 50 0 \$0-n2 \$0-xxx empty 17 7 0 10 -1 -262144
-262144;
#X obj 256 44 bng 30 250 50 0 \$0-n7 \$0-xxx empty 17 7 0 10 -1 -262144
-262144;
#X obj 292 44 bng 30 250 50 0 \$0-n9 \$0-xxx empty 17 7 0 10 -1 -262144
-262144;
#X obj 328 44 bng 30 250 50 0 \$0-n11 \$0-xxx empty 17 7 0 10 -1 -262144
-262144;
#X obj 111 500 expr $f1 * (pow (2 \, ($f2 / 12)));
#X obj 111 529 outlet;
#X obj 300 475 expr $f1 + (12 * ($f2 - 4));
#X obj 273 416 spigot;
#X obj 292 135 tgl 18 0 \$0-snoc \$0-xxx empty 17 7 0 10 -262144 -1
-1 0 1;
#X text 52 396 Reference Frequency;
#X text 372 495 Adjust interval;
#X text 189 520 Calculate frequency;
#X obj 111 440 inlet;
#X obj 273 388 t b f;
#X obj 273 440 t b b;
#X obj 98 195 r \$0-n1;
#X obj 125 216 r \$0-n2;
#X obj 152 236 r \$0-n3;
#X obj 179 257 r \$0-n4;
#X obj 206 195 r \$0-n5;
#X obj 233 216 r \$0-n6;
#X obj 260 236 r \$0-n7;
#X obj 287 257 r \$0-n8;
#X obj 314 195 r \$0-n9;
#X obj 341 216 r \$0-n10;
#X obj 368 236 r \$0-n11;
#X obj 395 257 r \$0-n12;
#X obj 134 135 hradio 18 1 0 8 \$0-octave \$0-xxx empty 0 -8 0 10 -262144
-1 -1 0;
#X text 138 117 0;
#X text 156 117 1;
#X text 174 117 2;
#X text 192 117 3;
#X text 209 117 4;
#X text 227 117 5;
#X text 245 117 6;
#X text 263 117 7;
#X obj 273 365 r \$0-octave;
#X obj 316 388 r \$0-snoc;
#X msg 79 440 440;
#X obj 79 417 loadbang;
#X obj 172 439 t b f;
#X obj 125 335 s \$0-notenum;
#X obj 172 416 r \$0-notenum;
#X connect 0 0 61 0;
#X connect 1 0 61 0;
#X connect 2 0 61 0;
#X connect 3 0 61 0;
#X connect 4 0 61 0;
#X connect 5 0 61 0;
#X connect 6 0 61 0;
#X connect 7 0 61 0;
#X connect 8 0 61 0;
#X connect 9 0 61 0;
#X connect 10 0 61 0;
#X connect 11 0 61 0;
#X connect 24 0 25 0;
#X connect 26 0 24 1;
#X connect 27 0 34 0;
#X connect 32 0 24 0;
#X connect 33 0 27 0;
#X connect 33 1 26 1;
#X connect 34 0 24 0;
#X connect 34 1 26 0;
#X connect 35 0 0 0;
#X connect 36 0 1 0;
#X connect 37 0 2 0;
#X connect 38 0 3 0;
#X connect 39 0 4 0;
#X connect 40 0 5 0;
#X connect 41 0 6 0;
#X connect 42 0 7 0;
#X connect 43 0 8 0;
#X connect 44 0 9 0;
#X connect 45 0 10 0;
#X connect 46 0 11 0;
#X connect 56 0 33 0;
#X connect 57 0 27 1;
#X connect 58 0 24 0;
#X connect 59 0 58 0;
#X connect 60 0 24 0;
#X connect 60 1 26 0;
#X connect 62 0 60 0;
#X coords 0 -1 1 1 254 140 1 127 20;
