#N canvas 4 441 1079 635 10;
#X msg 269 285 0;
#X msg 296 285 1;
#X msg 323 285 2;
#X msg 350 285 3;
#X msg 377 285 4;
#X msg 404 285 5;
#X msg 431 285 6;
#X msg 458 285 7;
#X msg 485 285 8;
#X msg 512 285 9;
#X msg 539 285 10;
#X msg 566 285 11;
#X obj 353 122 bng 30 250 50 0 empty empty empty 17 7 0 10 -262144
-1 -1;
#X obj 318 122 bng 30 250 50 0 empty empty empty 17 7 0 10 -262144
-1 -1;
#X obj 388 122 bng 30 250 50 0 empty empty empty 17 7 0 10 -262144
-1 -1;
#X obj 423 122 bng 30 250 50 0 empty empty empty 17 7 0 10 -262144
-1 -1;
#X obj 458 122 bng 30 250 50 0 empty empty empty 17 7 0 10 -262144
-1 -1;
#X obj 493 122 bng 30 250 50 0 empty empty empty 17 7 0 10 -262144
-1 -1;
#X obj 528 122 bng 30 250 50 0 empty empty empty 17 7 0 10 -262144
-1 -1;
#X obj 372 87 bng 30 250 50 0 empty empty empty 17 7 0 10 -1 -262144
-262144;
#X obj 336 87 bng 30 250 50 0 empty empty empty 17 7 0 10 -1 -262144
-262144;
#X obj 440 87 bng 30 250 50 0 empty empty empty 17 7 0 10 -1 -262144
-262144;
#X obj 476 87 bng 30 250 50 0 empty empty empty 17 7 0 10 -1 -262144
-262144;
#X obj 512 87 bng 30 250 50 0 empty empty empty 17 7 0 10 -1 -262144
-262144;
#X msg 223 285 432;
#X obj 403 569 dac~;
#X obj 323 408 expr $f1 * (pow (2 \, ($f2 / 12)));
#X msg 618 127 0;
#X msg 645 127 1;
#X msg 672 127 2;
#X msg 699 127 3;
#X msg 726 127 4;
#X msg 753 127 5;
#X msg 780 127 6;
#X msg 807 127 7;
#X floatatom 323 435 0 0 0 0 - - -;
#X obj 323 476 outlet;
#X obj 403 475 osc~;
#X obj 512 362 expr $f1 + (12 * ($f2 - 4));
#X obj 612 285 bng 15 250 50 0 empty empty empty 17 7 0 10 -262144
-1 -1;
#X obj 403 527 *~ 0;
#X obj 440 475 tgl 15 0 empty empty empty 17 7 0 10 -262144 -1 -1 0
1;
#X obj 612 305 spigot;
#X obj 844 127 tgl 15 0 empty empty empty 17 7 0 10 -262144 -1 -1 0
1;
#X text 52 285 Reference Frequency;
#X text 386 48 Keyboard;
#X text 705 90 Octave;
#X text 863 126 Send note on octave change;
#X text 682 364 Adjust interval;
#X text 524 409 Calculate frequency;
#X text 261 435 Frequency;
#X obj 176 285 inlet;
#X text 466 474 TODO: patch a synth in here;
#X obj 533 212 t b b;
#X obj 495 212 t b b;
#X obj 457 212 t b b;
#X obj 419 212 t b b;
#X obj 381 212 t b b;
#X obj 516 191 t b b;
#X obj 478 191 t b b;
#X obj 440 191 t b b;
#X obj 365 191 t b b;
#X obj 327 191 t b b;
#X obj 305 212 t b b;
#X obj 343 212 t b b;
#X obj 578 192 t b f;
#X obj 616 192 t b f;
#X obj 654 192 t b f;
#X obj 692 192 t b f;
#X obj 730 192 t b f;
#X obj 768 192 t b f;
#X obj 806 192 t b f;
#X obj 844 192 t b f;
#X obj 555 328 t b b;
#X connect 0 0 38 0;
#X connect 1 0 38 0;
#X connect 2 0 38 0;
#X connect 3 0 38 0;
#X connect 4 0 38 0;
#X connect 5 0 38 0;
#X connect 6 0 38 0;
#X connect 7 0 38 0;
#X connect 8 0 38 0;
#X connect 9 0 38 0;
#X connect 10 0 38 0;
#X connect 11 0 38 0;
#X connect 12 0 64 0;
#X connect 13 0 63 0;
#X connect 14 0 57 0;
#X connect 15 0 56 0;
#X connect 16 0 55 0;
#X connect 17 0 54 0;
#X connect 18 0 53 0;
#X connect 19 0 61 0;
#X connect 20 0 62 0;
#X connect 21 0 60 0;
#X connect 22 0 59 0;
#X connect 23 0 58 0;
#X connect 24 0 26 0;
#X connect 26 0 35 0;
#X connect 27 0 65 0;
#X connect 28 0 66 0;
#X connect 29 0 67 0;
#X connect 30 0 68 0;
#X connect 31 0 69 0;
#X connect 32 0 70 0;
#X connect 33 0 71 0;
#X connect 34 0 72 0;
#X connect 35 0 36 0;
#X connect 35 0 37 0;
#X connect 37 0 40 0;
#X connect 38 0 26 1;
#X connect 39 0 42 0;
#X connect 40 0 25 0;
#X connect 40 0 25 1;
#X connect 41 0 40 1;
#X connect 42 0 73 0;
#X connect 43 0 42 1;
#X connect 51 0 26 0;
#X connect 53 0 26 0;
#X connect 53 1 11 0;
#X connect 54 0 26 0;
#X connect 54 1 9 0;
#X connect 55 0 26 0;
#X connect 55 1 7 0;
#X connect 56 0 26 0;
#X connect 56 1 5 0;
#X connect 57 0 26 0;
#X connect 57 1 4 0;
#X connect 58 0 26 0;
#X connect 58 1 10 0;
#X connect 59 0 26 0;
#X connect 59 1 8 0;
#X connect 60 0 26 0;
#X connect 60 1 6 0;
#X connect 61 0 26 0;
#X connect 61 1 3 0;
#X connect 62 0 26 0;
#X connect 62 1 1 0;
#X connect 63 0 26 0;
#X connect 63 1 0 0;
#X connect 64 0 26 0;
#X connect 64 1 2 0;
#X connect 65 0 39 0;
#X connect 65 1 38 1;
#X connect 66 0 39 0;
#X connect 66 1 38 1;
#X connect 67 0 39 0;
#X connect 67 1 38 1;
#X connect 68 0 39 0;
#X connect 68 1 38 1;
#X connect 69 0 39 0;
#X connect 69 1 38 1;
#X connect 70 0 39 0;
#X connect 70 1 38 1;
#X connect 71 0 39 0;
#X connect 71 1 38 1;
#X connect 72 0 39 0;
#X connect 72 1 38 1;
#X connect 73 0 26 0;
#X connect 73 1 38 0;
