#N canvas 2966 243 584 665 12;
#X obj 131 169 bng 15 250 50 0 empty empty empty 0 -6 0 8 -262144 -1
-1;
#X floatatom 203 205 5 0 0 0 - - -, f 5;
#X obj 164 239 del;
#X msg 131 265 1;
#X msg 164 265 0;
#X obj 43 269 noise~;
#X obj 44 338 *~;
#X obj 224 296 vd~ buffer 100;
#X obj 103 476 *~ 0.99;
#X floatatom 170 452 5 0 0 0 - - -, f 5;
#X obj 103 522 dac~;
#X obj 43 579 delwrite~ buffer 1000;
#X obj 224 339 *~ 0.5;
#X obj 312 355 *~ 0.5;
#X obj 225 392 +~;
#X floatatom 203 137 5 0 0 0 - - -, f 5;
#X text 262 139 Frequency (Hz.);
#X text 367 325 Delay by 1 Sample;
#X text 369 370 calculates average;
#X text 219 451 damping factor (between 0 and 1);
#X obj 203 174 expr 1000 / $f1;
#X text 254 205 duration of one period (ms);
#X obj 311 328 vz~ 1;
#X connect 0 0 2 0;
#X connect 0 0 3 0;
#X connect 1 0 2 1;
#X connect 1 0 7 0;
#X connect 2 0 4 0;
#X connect 3 0 6 1;
#X connect 4 0 6 1;
#X connect 5 0 6 0;
#X connect 6 0 11 0;
#X connect 7 0 12 0;
#X connect 7 0 22 0;
#X connect 8 0 10 0;
#X connect 8 0 10 1;
#X connect 8 0 11 0;
#X connect 9 0 8 1;
#X connect 12 0 14 0;
#X connect 13 0 14 1;
#X connect 14 0 8 0;
#X connect 15 0 20 0;
#X connect 20 0 1 0;
#X connect 22 0 13 0;
