#N canvas 2039 145 838 715 10;
#X obj 271 127 inlet;
#X obj 295 224 del;
#X msg 295 247 0;
#X msg 268 247 1;
#X obj 215 247 noise~;
#X text 110 248 TODO: add filter;
#X obj 215 428 delwrite~ \$0-buf 1000;
#X obj 216 282 *~;
#X obj 337 261 delread4~ \$0-buf;
#X obj 271 149 t b b f;
#X text 262 109 frequency;
#X msg 181 41 36;
#X msg 208 41 41;
#X msg 189 62 48;
#X msg 216 62 53;
#X msg 198 83 60;
#X msg 225 83 65;
#X obj 222 125 mtof;
#X obj 356 520 out~;
#X obj 310 175 expr 44100 / ($f1 * 1.09545) * 0.025;
#X obj 310 201 t f f;
#X obj 337 224 sig~;
#X obj 389 313 *~ 0.99;
#X connect 0 0 9 0;
#X connect 1 0 2 0;
#X connect 2 0 7 1;
#X connect 3 0 7 1;
#X connect 4 0 7 0;
#X connect 7 0 6 0;
#X connect 8 0 22 0;
#X connect 9 0 3 0;
#X connect 9 1 1 0;
#X connect 9 2 19 0;
#X connect 11 0 17 0;
#X connect 12 0 17 0;
#X connect 13 0 17 0;
#X connect 14 0 17 0;
#X connect 15 0 17 0;
#X connect 16 0 17 0;
#X connect 17 0 9 0;
#X connect 19 0 20 0;
#X connect 20 0 1 1;
#X connect 20 1 21 0;
#X connect 21 0 8 0;
#X connect 22 0 6 0;
#X connect 22 0 18 0;
#X connect 22 0 18 1;
