#N canvas 920 198 500 300 10;
#X obj 226 39 inlet;
#X obj 226 93 sig~;
#X obj 226 115 osc~;
#X obj 226 137 snapshot~;
#X obj 226 184 outlet;
#X obj 278 184 outlet;
#X obj 121 40 loadbang;
#X msg 121 94 1;
#X obj 121 116 metro 1;
#X obj 278 162 expr ($f1 + 1) / 2;
#X text 219 205 bipolar;
#X text 278 205 unipolar;
#X obj 121 62 t b b;
#X obj 187 63 f \$1;
#X connect 0 0 1 0;
#X connect 1 0 2 0;
#X connect 2 0 3 0;
#X connect 3 0 4 0;
#X connect 3 0 9 0;
#X connect 6 0 12 0;
#X connect 7 0 8 0;
#X connect 8 0 3 0;
#X connect 9 0 5 0;
#X connect 12 0 7 0;
#X connect 12 1 13 0;
#X connect 13 0 1 0;
