#N canvas 765 292 511 306 10;
#X text 83 70 arguments: lin min \, log min \, lin max \, log max;
#X text 324 117 precompute constants;
#X text 83 47 map values from a linear scale to a logarithmic scale
;
#X obj 81 202 expr~ $f3 * exp($f2 * $v1);
#X text 273 203 <-- a exp bx;
#X text 436 175 <-- a;
#X text 429 144 <-- b;
#X obj 82 119 inlet~;
#X obj 82 230 outlet~;
#X obj 260 118 loadbang;
#X obj 260 146 expr log(\$4/\$2)/(\$3-\$1);
#X obj 260 175 expr \$4 / exp (\$3 * $f1);
#X connect 3 0 8 0;
#X connect 7 0 3 0;
#X connect 9 0 10 0;
#X connect 10 0 3 1;
#X connect 10 0 11 0;
#X connect 11 0 3 2;
