#N canvas 173 518 350 274 10;
#X obj 144 39 inlet;
#X obj 210 39 inlet;
#X text 140 17 trigger;
#X text 209 17 probability;
#X obj 144 146 <;
#X obj 144 83 random 1000;
#X obj 162 125 * 1000;
#X msg 144 190 bang;
#X obj 144 232 outlet;
#X obj 27 41 vsl 40 60 0 1 0 0 \$0-prob \$0-probi empty 0 -9 0 10 -261682
-66577 -1 0 1;
#X obj 72 39 bng 12 100 50 0 \$0-xxx \$0-ping empty 17 7 0 10 -191407
-260097 -1;
#X obj 162 104 r \$0-prob;
#X obj 210 61 s \$0-probi;
#X obj 151 211 s \$0-ping;
#X obj 144 168 sel 1;
#X connect 0 0 5 0;
#X connect 1 0 12 0;
#X connect 4 0 14 0;
#X connect 5 0 4 0;
#X connect 6 0 4 1;
#X connect 7 0 8 0;
#X connect 7 0 13 0;
#X connect 11 0 6 0;
#X connect 14 0 7 0;
#X coords 0 -1 1 1 70 90 1 20 20;
