#N canvas 2573 532 450 300 10;
#X obj 178 76 inlet;
#X obj 178 98 sig~;
#X obj 178 120 phasor~;
#X obj 178 142 expr~ $v1 > $f2;
#X obj 119 98 loadbang;
#X msg 119 120 1;
#X obj 119 142 metro 1;
#X obj 178 164 snapshot~;
#X obj 178 186 outlet;
#X obj 265 76 inlet;
#X obj 306 76 loadbang;
#X msg 306 98 0.5;
#X obj 265 98 * 0.5;
#X connect 0 0 1 0;
#X connect 1 0 2 0;
#X connect 2 0 3 0;
#X connect 3 0 7 0;
#X connect 4 0 5 0;
#X connect 5 0 6 0;
#X connect 6 0 7 0;
#X connect 7 0 8 0;
#X connect 9 0 12 0;
#X connect 10 0 11 0;
#X connect 11 0 3 1;
#X connect 12 0 3 1;
