#N canvas 604 537 450 300 10;
#X obj 103 60 inlet;
#X obj 103 82 sig~;
#X obj 103 104 phasor~;
#X obj 103 126 expr~ $v1 > $f2;
#X obj 103 148 *~ 2;
#X obj 103 170 -~ 1;
#X obj 103 192 outlet~;
#X obj 199 27 inlet;
#X obj 240 27 loadbang;
#X msg 240 49 0.5;
#X obj 199 49 * 0.5;
#X obj 199 93 line;
#X obj 199 71 pack f 50;
#X connect 0 0 1 0;
#X connect 1 0 2 0;
#X connect 2 0 3 0;
#X connect 3 0 4 0;
#X connect 4 0 5 0;
#X connect 5 0 6 0;
#X connect 7 0 10 0;
#X connect 8 0 9 0;
#X connect 9 0 3 1;
#X connect 10 0 12 0;
#X connect 11 0 3 1;
#X connect 12 0 11 0;
