#N canvas 4 89 450 300 10;
#X obj 136 146 metro;
#X obj 163 120 + 1000;
#X obj 163 98 random 500;
#X obj 136 98 tgl 15 0 empty empty empty 17 7 0 10 -262144 -1 -1 0
1;
#X connect 0 0 2 0;
#X connect 1 0 0 1;
#X connect 2 0 1 0;
#X connect 3 0 0 0;
