#N canvas 4 89 396 318 10;
#X obj 180 125 f;
#X obj 180 147 ==;
#X obj 162 169 f;
#X obj 162 195 sel 0;
#X obj 162 217 f;
#X obj 208 195 sel 1;
#X obj 162 95 t b f b f;
#X obj 162 51 inlet;
#X obj 222 51 inlet;
#X obj 162 239 outlet;
#X text 122 50 bang;
#X text 267 50 range;
#X text 251 194 repeat - retry;
#X text 43 195 unique - success;
#X obj 162 73 random \$1;
#X connect 0 0 1 0;
#X connect 1 0 2 1;
#X connect 2 0 3 0;
#X connect 2 0 5 0;
#X connect 3 0 4 0;
#X connect 4 0 9 0;
#X connect 5 0 14 0;
#X connect 6 0 2 0;
#X connect 6 1 0 1;
#X connect 6 2 0 0;
#X connect 6 3 1 1;
#X connect 6 3 4 1;
#X connect 7 0 14 0;
#X connect 8 0 14 1;
#X connect 14 0 6 0;
