#N canvas 707 150 1151 409 10;
#X obj 36 232 vaosc~;
#X obj 181 180 *;
#X obj 166 206 +;
#X floatatom 196 154 5 0 0 0 - - -, f 5;
#X obj 166 231 vaosc~;
#X obj 32 24 inlet;
#X obj 42 314 outlet~;
#X obj 237 151 random 10;
#X obj 237 173 + 1;
#X floatatom 237 217 5 0 0 0 - - -, f 5;
#X obj 32 134 s \$0-freq;
#X obj 36 208 r \$0-freq;
#X obj 166 81 r \$0-freq;
#X obj 52 258 throw~ \$0-bus;
#X obj 42 290 catch~ \$0-bus;
#X obj 181 257 throw~ \$0-bus;
#X obj 196 105 loadbang;
#X obj 237 236 t b b f;
#X obj 237 129 r \$0-retune;
#X obj 165 27 bng 15 250 50 0 empty empty empty 17 7 0 10 -262144 -1
-1;
#X obj 165 47 s \$0-retune;
#X obj 335 179 *;
#X obj 320 205 +;
#X floatatom 350 153 5 0 0 0 - - -, f 5;
#X obj 320 230 vaosc~;
#X obj 391 150 random 10;
#X obj 391 172 + 1;
#X floatatom 391 216 5 0 0 0 - - -, f 5;
#X obj 320 80 r \$0-freq;
#X obj 335 256 throw~ \$0-bus;
#X obj 350 104 loadbang;
#X obj 391 235 t b b f;
#X obj 391 128 r \$0-retune;
#X obj 493 177 *;
#X obj 478 203 +;
#X floatatom 508 151 5 0 0 0 - - -, f 5;
#X obj 478 228 vaosc~;
#X obj 549 148 random 10;
#X obj 549 170 + 1;
#X floatatom 549 214 5 0 0 0 - - -, f 5;
#X obj 478 78 r \$0-freq;
#X obj 493 254 throw~ \$0-bus;
#X obj 508 102 loadbang;
#X obj 549 233 t b b f;
#X obj 549 126 r \$0-retune;
#X obj 647 176 *;
#X obj 632 202 +;
#X floatatom 662 150 5 0 0 0 - - -, f 5;
#X obj 632 227 vaosc~;
#X obj 703 147 random 10;
#X obj 703 169 + 1;
#X floatatom 703 213 5 0 0 0 - - -, f 5;
#X obj 632 77 r \$0-freq;
#X obj 647 253 throw~ \$0-bus;
#X obj 662 101 loadbang;
#X obj 703 232 t b b f;
#X obj 703 125 r \$0-retune;
#X obj 799 174 *;
#X obj 784 200 +;
#X floatatom 814 148 5 0 0 0 - - -, f 5;
#X obj 784 225 vaosc~;
#X obj 855 145 random 10;
#X obj 855 167 + 1;
#X floatatom 855 211 5 0 0 0 - - -, f 5;
#X obj 784 75 r \$0-freq;
#X obj 799 251 throw~ \$0-bus;
#X obj 814 99 loadbang;
#X obj 855 230 t b b f;
#X obj 855 123 r \$0-retune;
#X obj 953 173 *;
#X obj 938 199 +;
#X floatatom 968 147 5 0 0 0 - - -, f 5;
#X obj 938 224 vaosc~;
#X msg 968 123 0.01;
#X obj 1009 144 random 10;
#X obj 1009 166 + 1;
#X floatatom 1009 210 5 0 0 0 - - -, f 5;
#X obj 938 74 r \$0-freq;
#X obj 953 250 throw~ \$0-bus;
#X obj 968 98 loadbang;
#X obj 1009 229 t b b f;
#X obj 1009 122 r \$0-retune;
#X obj 237 195 / 3000;
#X obj 391 194 / 3000;
#X obj 549 192 / 3000;
#X obj 703 191 / 3000;
#X obj 855 189 / 3000;
#X obj 1009 188 / 3000;
#X obj 218 22 inlet;
#X obj 72 75 s \$0-retune;
#X obj 32 46 route float symbol;
#X msg 196 130 0.001;
#X msg 350 129 0.001;
#X msg 508 127 0.002;
#X msg 662 126 0.002;
#X msg 814 124 0.003;
#X connect 0 1 13 0;
#X connect 1 0 2 1;
#X connect 2 0 4 0;
#X connect 3 0 1 1;
#X connect 4 1 15 0;
#X connect 5 0 90 0;
#X connect 7 0 8 0;
#X connect 8 0 82 0;
#X connect 9 0 17 0;
#X connect 11 0 0 0;
#X connect 12 0 1 0;
#X connect 12 0 2 0;
#X connect 14 0 6 0;
#X connect 16 0 91 0;
#X connect 17 0 2 0;
#X connect 17 1 1 0;
#X connect 17 2 3 0;
#X connect 18 0 7 0;
#X connect 19 0 20 0;
#X connect 21 0 22 1;
#X connect 22 0 24 0;
#X connect 23 0 21 1;
#X connect 24 1 29 0;
#X connect 25 0 26 0;
#X connect 26 0 83 0;
#X connect 27 0 31 0;
#X connect 28 0 21 0;
#X connect 28 0 22 0;
#X connect 30 0 92 0;
#X connect 31 0 22 0;
#X connect 31 1 21 0;
#X connect 31 2 23 0;
#X connect 32 0 25 0;
#X connect 33 0 34 1;
#X connect 34 0 36 0;
#X connect 35 0 33 1;
#X connect 36 1 41 0;
#X connect 37 0 38 0;
#X connect 38 0 84 0;
#X connect 39 0 43 0;
#X connect 40 0 33 0;
#X connect 40 0 34 0;
#X connect 42 0 93 0;
#X connect 43 0 34 0;
#X connect 43 1 33 0;
#X connect 43 2 35 0;
#X connect 44 0 37 0;
#X connect 45 0 46 1;
#X connect 46 0 48 0;
#X connect 47 0 45 1;
#X connect 48 1 53 0;
#X connect 49 0 50 0;
#X connect 50 0 85 0;
#X connect 51 0 55 0;
#X connect 52 0 45 0;
#X connect 52 0 46 0;
#X connect 54 0 94 0;
#X connect 55 0 46 0;
#X connect 55 1 45 0;
#X connect 55 2 47 0;
#X connect 56 0 49 0;
#X connect 57 0 58 1;
#X connect 58 0 60 0;
#X connect 59 0 57 1;
#X connect 60 1 65 0;
#X connect 61 0 62 0;
#X connect 62 0 86 0;
#X connect 63 0 67 0;
#X connect 64 0 57 0;
#X connect 64 0 58 0;
#X connect 66 0 95 0;
#X connect 67 0 58 0;
#X connect 67 1 57 0;
#X connect 67 2 59 0;
#X connect 68 0 61 0;
#X connect 69 0 70 1;
#X connect 70 0 72 0;
#X connect 71 0 69 1;
#X connect 72 1 78 0;
#X connect 73 0 71 0;
#X connect 74 0 75 0;
#X connect 75 0 87 0;
#X connect 76 0 80 0;
#X connect 77 0 69 0;
#X connect 77 0 70 0;
#X connect 79 0 73 0;
#X connect 80 0 70 0;
#X connect 80 1 69 0;
#X connect 80 2 71 0;
#X connect 81 0 74 0;
#X connect 82 0 9 0;
#X connect 83 0 27 0;
#X connect 84 0 39 0;
#X connect 85 0 51 0;
#X connect 86 0 63 0;
#X connect 87 0 76 0;
#X connect 88 0 20 0;
#X connect 90 0 10 0;
#X connect 90 1 89 0;
#X connect 91 0 3 0;
#X connect 92 0 23 0;
#X connect 93 0 35 0;
#X connect 94 0 47 0;
#X connect 95 0 59 0;
