#N canvas 496 50 665 713 10;
#X obj 67 649 outlet~;
#X obj 236 650 outlet~;
#X obj 371 651 outlet~;
#X obj 67 36 loadbang;
#X obj 67 65 t b b b b b b;
#X obj 66 514 inlet;
#X obj 67 621 tabread4~ \$0-triangle;
#X obj 236 622 tabread4~ \$0-saw;
#X obj 371 623 tabread4~ \$0-square;
#X msg 137 185 \; \$1-square normalize 1;
#X msg 102 332 \; \$1-saw normalize 1;
#X msg 67 464 \; \$1-triangle normalize 1;
#X obj 155 89 f \$0;
#X obj 137 161 f \$0;
#X obj 119 221 f \$0;
#X obj 67 440 f \$0;
#X obj 102 308 f \$0;
#X obj 84 367 f \$0;
#X obj 173 65 table \$0-triangle 2051;
#X obj 341 65 table \$0-saw 2051;
#X obj 474 65 table \$0-square 2051;
#X msg 84 391 \; \$1-triangle sinesum 2048 1 0 -0.111111 0 0.04 0 -0.0204082
0 0.0123457 0 -0.00826446 0 0.00591716 0 -0.00444444;
#X obj 66 588 *~ 2051;
#X msg 155 112 \; \$1-square sinesum 2048 1 0 0.333333 0 0.2 0 0.142857
0 0.111111 0 0.090909 0 0.076923;
#X msg 119 245 \; \$1-saw sinesum 2048 1 0.5 0.333333 0.25 0.2 0.166667
0.142857 0.125 0.111111 0.1 0.090909 0.083333 0.076923;
#X obj 66 564 phasor~;
#X obj 66 539 sig~;
#X connect 3 0 4 0;
#X connect 4 0 15 0;
#X connect 4 1 17 0;
#X connect 4 2 16 0;
#X connect 4 3 14 0;
#X connect 4 4 13 0;
#X connect 4 5 12 0;
#X connect 5 0 26 0;
#X connect 6 0 0 0;
#X connect 7 0 1 0;
#X connect 8 0 2 0;
#X connect 12 0 23 0;
#X connect 13 0 9 0;
#X connect 14 0 24 0;
#X connect 15 0 11 0;
#X connect 16 0 10 0;
#X connect 17 0 21 0;
#X connect 22 0 6 0;
#X connect 22 0 7 0;
#X connect 22 0 8 0;
#X connect 25 0 22 0;
#X connect 26 0 25 0;
#X coords 0 713 1 712 85 60 0;
