#N canvas 1390 617 450 300 10;
#X obj 29 23 inlet~;
#X obj 292 81 samplerate~;
#X floatatom 292 111 5 0 0 0 - - -, f 5;
#X obj 28 57 delwrite~ \$0-del \$1;
#X obj 260 198 delread~ \$0-del 500;
#X obj 260 23 loadbang;
#X obj 260 49 t b b;
#X obj 260 142 /;
#X obj 260 111 \$1;
#X obj 260 170 * 1000;
#X obj 260 226 outlet~;
#X text 25 88 samplewise delay;
#X text 25 110 based on [z~] from the zexy library;
#X text 26 146 \$1: delay in samples;
#X connect 0 0 3 0;
#X connect 1 0 2 0;
#X connect 2 0 7 1;
#X connect 4 0 10 0;
#X connect 5 0 6 0;
#X connect 6 0 8 0;
#X connect 6 1 1 0;
#X connect 7 0 9 0;
#X connect 8 0 7 0;
#X connect 9 0 4 0;
