#N canvas 555 165 525 554 10;
#X obj 255 244 osc~;
#X obj 255 336 *~;
#X obj 273 314 vline~;
#X obj 255 222 line~;
#X obj 113 247 lop~;
#X obj 238 407 +~;
#X obj 138 225 line;
#X obj 112 336 *~;
#X obj 130 314 vline~;
#X msg 138 202 600 \, 200 10;
#X obj 238 431 outlet~;
#X obj 255 33 inlet;
#X obj 255 55 t b b b b;
#X text 59 496 TODO: pitch (60% drop) \, damp (20% - 100%) \, click
(values?);
#X text 345 274 dampen;
#X text 112 138 click;
#X obj 315 77 s \$0-clickf;
#X obj 295 99 s \$0-clickl;
#X obj 275 121 s \$0-pitch;
#X obj 255 144 s \$0-decay;
#X obj 255 179 r \$0-pitch;
#X obj 273 271 r \$0-decay;
#X obj 138 181 r \$0-clickf;
#X obj 130 270 r \$0-clickl;
#X msg 255 200 100 \, 60 100;
#X msg 273 292 1 10 \, 0 250 10;
#X msg 130 292 0.15 10 \, 0 75 10;
#X obj 113 157 pink~;
#X connect 0 0 1 0;
#X connect 1 0 5 1;
#X connect 2 0 1 1;
#X connect 3 0 0 0;
#X connect 4 0 7 0;
#X connect 5 0 10 0;
#X connect 6 0 4 1;
#X connect 7 0 5 0;
#X connect 8 0 7 1;
#X connect 9 0 6 0;
#X connect 11 0 12 0;
#X connect 12 0 19 0;
#X connect 12 1 18 0;
#X connect 12 2 17 0;
#X connect 12 3 16 0;
#X connect 20 0 24 0;
#X connect 21 0 25 0;
#X connect 22 0 9 0;
#X connect 23 0 26 0;
#X connect 24 0 3 0;
#X connect 25 0 2 0;
#X connect 26 0 8 0;
#X connect 27 0 4 0;
